# xmcd CD database file
#
# Track frame offsets:
#	150
#	23270
#	45860
#	64992
#	78262
#	98945
#	120870
#	132045
#	151212
#	174020
#	192750
#	218307
#
# Disc length: 3116 seconds
#
# Revision: 2
# Processed by: cddbd v1.4PL0 Copyright (c) Steve Scherf et al.
# Submitted via: CDex 1.50
#
DISCID=790c2a0c
DTITLE=Kenny Rogers - Timepiece
DYEAR=1994
DGENRE=Pop
TTITLE0=I Remember You
TTITLE1=But Beautiful
TTITLE2=When I Fall In Love
TTITLE3=Love Is Here To Stay
TTITLE4=The Nearness Of You
TTITLE5=My Favorite Valentine
TTITLE6=Love Is Just Around The Corner
TTITLE7=Where Or When
TTITLE8=My Romance
TTITLE9=In The Wee Small Hours Of The Morning
TTITLE10=I Get Along Without You Very Well
TTITLE11=You Are So Beautiful
EXTD=YEAR: 1994
EXTT0=
EXTT1=
EXTT2=
EXTT3=
EXTT4=
EXTT5=
EXTT6=
EXTT7=
EXTT8=
EXTT9=
EXTT10=
EXTT11=
PLAYORDER=
